<svg width="176" height="176" viewBox="0 0 176 176" fill="none" xmlns="http://www.w3.org/2000/svg">
<rect width="176" height="176" rx="8" fill="#070707"/>
<path d="M28.2365 111V67.968H43.0205C46.1885 67.968 49.0485 68.408 51.6005 69.288C54.1965 70.124 56.2645 71.554 57.8045 73.578C59.3445 75.602 60.1145 78.352 60.1145 81.828C60.1145 85.172 59.3445 87.922 57.8045 90.078C56.2645 92.234 54.2185 93.84 51.6665 94.896C49.1145 95.908 46.3205 96.414 43.2845 96.414H37.9385V111H28.2365ZM37.9385 88.692H42.6905C47.9705 88.692 50.6105 86.404 50.6105 81.828C50.6105 79.584 49.9065 78 48.4985 77.076C47.0905 76.152 45.0665 75.69 42.4265 75.69H37.9385V88.692ZM69.9433 111V67.968H85.4533C88.4893 67.968 91.2613 68.386 93.7693 69.222C96.2773 70.014 98.2793 71.378 99.7753 73.314C101.271 75.25 102.019 77.934 102.019 81.366C102.019 84.534 101.315 87.152 99.9073 89.22C98.5433 91.244 96.6953 92.762 94.3633 93.774L104.131 111H93.2413L84.9913 95.49H79.6453V111H69.9433ZM79.6453 87.768H84.6613C87.2133 87.768 89.1493 87.24 90.4693 86.184C91.8333 85.084 92.5153 83.478 92.5153 81.366C92.5153 79.254 91.8333 77.78 90.4693 76.944C89.1493 76.108 87.2133 75.69 84.6613 75.69H79.6453V87.768ZM130.3 111.792C126.428 111.792 123.018 110.89 120.07 109.086C117.166 107.282 114.878 104.708 113.206 101.364C111.578 97.976 110.764 93.95 110.764 89.286C110.764 84.578 111.578 80.596 113.206 77.34C114.878 74.04 117.166 71.532 120.07 69.816C123.018 68.056 126.428 67.176 130.3 67.176C134.172 67.176 137.56 68.056 140.464 69.816C143.412 71.532 145.7 74.04 147.328 77.34C149 80.64 149.836 84.622 149.836 89.286C149.836 93.95 149 97.976 147.328 101.364C145.7 104.708 143.412 107.282 140.464 109.086C137.56 110.89 134.172 111.792 130.3 111.792ZM130.3 103.41C133.248 103.41 135.58 102.134 137.296 99.582C139.012 97.03 139.87 93.598 139.87 89.286C139.87 84.974 139.012 81.608 137.296 79.188C135.58 76.768 133.248 75.558 130.3 75.558C127.352 75.558 125.02 76.768 123.304 79.188C121.588 81.608 120.73 84.974 120.73 89.286C120.73 93.598 121.588 97.03 123.304 99.582C125.02 102.134 127.352 103.41 130.3 103.41Z" fill="white"/>
</svg>
